<svg width="24" height="24" viewBox="0 0 24 24" fill="none" xmlns="http://www.w3.org/2000/svg">
<g id="inst 9">
<path id="Vector" d="M11.9567 2.98343L12.6246 1.7855C13.0369 1.0368 13.9564 0.784373 14.6779 1.21221C15.3994 1.64004 15.6427 2.5941 15.2304 3.34281L8.79436 14.9028H13.4492C14.9583 14.9028 15.8035 16.7425 15.1479 18.0175H1.50077C0.667926 18.0175 0 17.3244 0 16.4602C0 15.5959 0.667926 14.9028 1.50077 14.9028H5.32692L10.225 6.09377L8.69541 3.33853C8.28311 2.58983 8.52637 1.64432 9.24789 1.20793C9.96942 0.780095 10.8806 1.03252 11.3012 1.78122L11.9567 2.98343ZM6.16801 19.6218L4.72496 22.2188C4.31266 22.9675 3.39323 23.2199 2.67171 22.7921C1.95018 22.3642 1.70692 21.4102 2.11922 20.6615L3.1912 18.7362C4.40337 18.3469 5.38876 18.6464 6.16801 19.6218ZM18.5947 14.9114H22.4992C23.3321 14.9114 24 15.6045 24 16.4687C24 17.3329 23.3321 18.026 22.4992 18.026H20.3305L21.7942 20.6615C22.2065 21.4102 21.9632 22.3557 21.2417 22.7921C20.5202 23.2199 19.609 22.9675 19.1885 22.2188C16.7229 17.7822 14.8717 14.4622 13.643 12.2503C12.3855 9.99988 13.2843 7.74093 14.1708 6.97511C15.1562 8.72922 16.6281 11.3775 18.5947 14.9114Z" fill="url(#paint0_linear_1_928)"/>
</g>
<defs>
<linearGradient id="paint0_linear_1_928" x1="12" y1="0.999999" x2="12" y2="23" gradientUnits="userSpaceOnUse">
<stop stop-color="#5DC4F6"/>
<stop offset="1" stop-color="#376DE9"/>
</linearGradient>
</defs>
</svg>
