<svg width="143" height="48" viewBox="0 0 143 48" fill="none" xmlns="http://www.w3.org/2000/svg">
<g id="Frame 2">
<g id="Group 1">
<g id="Group">
<path id="Vector" d="M32.7088 15.6778C32.5499 25.0825 25.038 32.6897 15.6754 33.0108V32.5871C15.6754 32.4513 15.6754 32.3156 15.6754 32.1799C15.5429 32.1799 15.4039 32.1865 15.2681 32.1865H15.0596C15.1821 27.4991 17.1321 23.2651 20.2242 20.1733C23.3032 17.0947 27.5144 15.1482 32.1791 15.0125V15.2773C32.1791 15.413 32.1791 15.5487 32.1791 15.6845C32.3116 15.6811 32.4506 15.6778 32.5863 15.6778H32.7088Z" fill="#99002F"/>
<path id="Vector_2" d="M39.916 15.6779V23.007C39.916 32.3487 32.3445 39.9162 23.005 39.9162H15.6719V33.0108V32.5871C15.6719 32.4514 15.6719 32.3157 15.6719 32.1799C24.6869 31.9648 31.9538 24.6985 32.1723 15.6845C32.3048 15.6812 32.4438 15.6779 32.5796 15.6779H39.9094H39.916Z" fill="#8BC74F"/>
<path id="Vector_3" d="M32.1824 7.94482V15.2772C32.1824 15.413 32.1824 15.5487 32.1824 15.6844C23.1641 15.8996 15.8971 23.1658 15.6819 32.1799C15.5495 32.1799 15.4104 32.1865 15.2747 32.1865H7.94482V24.8541C7.94482 15.5156 15.5131 7.94482 24.8558 7.94482H32.1857H32.1824Z" fill="#E8184E"/>
</g>
<g id="Union">
<path d="M69.66 9.77051C67.8644 9.77051 66.6932 10.9315 66.6932 12.4364C66.6932 13.9412 67.8644 15.1022 69.66 15.1022C71.3673 15.1022 72.514 13.9535 72.514 12.4364C72.514 10.9192 71.3673 9.77051 69.66 9.77051Z" fill="#2B2C2F"/>
<path fill-rule="evenodd" clip-rule="evenodd" d="M78.1139 10.9363C77.4015 10.9363 76.8357 11.1747 76.4491 11.5614C76.0625 11.948 75.8241 12.5137 75.8241 13.2261V27.968C75.8241 33.93 80.2878 38.3057 86.5381 38.3057C92.8665 38.3057 97.3274 33.9648 97.3274 27.968C97.3274 24.9405 96.3162 22.3493 94.5792 20.518C92.844 18.6888 90.3613 17.5927 87.3655 17.5927C84.7568 17.5927 82.6791 18.4596 81.1439 19.8877L80.4414 20.5412V13.2261C80.4414 12.5138 80.2031 11.949 79.8131 11.5628C79.4228 11.1764 78.8476 10.9363 78.1139 10.9363ZM82.1403 22.9427C83.225 21.7206 84.7512 21.0441 86.5005 21.0441C88.2672 21.0441 89.8029 21.7196 90.8929 22.942C91.9797 24.1609 92.5972 25.8928 92.5972 27.968C92.5972 30.0253 91.9792 31.748 90.8923 32.9618C89.8025 34.1789 88.2671 34.8543 86.5005 34.8543C84.7513 34.8543 83.2254 34.1779 82.1409 32.961C81.0594 31.7475 80.4414 30.0253 80.4414 27.968C80.4414 25.8928 81.0588 24.1613 82.1403 22.9427Z" fill="#2B2C2F"/>
<path d="M51.3661 11.3124C50.555 11.3124 49.9243 11.5726 49.4978 11.9952C49.0716 12.4175 48.813 13.038 48.813 13.8278V35.7902C48.813 36.5595 49.0706 37.1824 49.4958 37.6115C49.9204 38.04 50.5423 38.3057 51.3285 38.3057C52.1359 38.3057 52.7671 38.0385 53.1954 37.6101C53.6241 37.1814 53.8816 36.5594 53.8816 35.7902V26.5347H62.6861C63.2855 26.5347 63.7573 26.334 64.0782 26.0131C64.3992 25.6922 64.5999 25.2204 64.5999 24.621C64.5999 23.9783 64.3955 23.4876 64.0749 23.1597C63.755 22.8324 63.2852 22.6321 62.6861 22.6321H53.8816V15.215H63.0246C63.6246 15.215 64.1077 15.0138 64.4389 14.6901C64.7691 14.3673 64.976 13.8959 64.976 13.3013C64.976 12.6633 64.7652 12.1731 64.4355 11.8434C64.1054 11.5133 63.6243 11.3124 63.0246 11.3124H51.3661Z" fill="#2B2C2F"/>
<path d="M69.6224 17.5927C68.8679 17.5927 68.2944 17.834 67.9106 18.2178C67.5265 18.6019 67.295 19.1661 67.295 19.8825V36.0159C67.295 36.7283 67.5334 37.294 67.92 37.6806C68.3066 38.0673 68.8724 38.3057 69.5848 38.3057C70.3186 38.3057 70.8937 38.0656 71.284 37.6792C71.674 37.293 71.9123 36.7282 71.9123 36.0159V19.8825C71.9123 19.1701 71.6739 18.6044 71.2872 18.2178C70.9006 17.8312 70.3348 17.5927 69.6224 17.5927Z" fill="#2B2C2F"/>
<path fill-rule="evenodd" clip-rule="evenodd" d="M109.654 17.5927C103.802 17.5927 99.5412 21.9462 99.5412 27.968C99.5412 33.98 103.867 38.3057 109.879 38.3057C114.493 38.3057 118.252 35.7773 119.304 32.9734L119.308 32.9623L119.308 32.9604L119.312 32.953L119.312 32.9527C119.522 32.4719 119.471 31.9897 119.244 31.6336C119.02 31.2824 118.603 31.0184 118.002 31.0184C117.361 31.0184 116.624 31.3534 116.125 31.8292L116.119 31.8345L116.115 31.8413C115.014 33.7851 112.826 35.08 110.481 35.08C108.784 35.08 107.313 34.499 106.232 33.4535C105.152 32.4093 104.486 30.927 104.348 29.1666L104.312 28.7159H116.197C117.398 28.7159 118.34 28.2905 118.906 27.6681C119.465 27.0529 119.685 26.2185 119.408 25.3065L119.403 25.2901L119.399 25.2733C118.426 20.7658 114.685 17.5927 109.654 17.5927ZM104.424 25.9685C104.777 22.6316 106.854 20.3296 109.654 20.3296C112.488 20.3296 114.567 22.6294 114.921 25.9685L114.969 26.4304H104.375L104.424 25.9685Z" fill="#2B2C2F"/>
<path d="M124.85 17.5927C124.116 17.5927 123.541 17.8328 123.151 18.2192C122.761 18.6054 122.522 19.1703 122.522 19.8825V36.0159C122.522 36.7283 122.761 37.294 123.147 37.6806C123.534 38.0673 124.1 38.3057 124.812 38.3057C125.567 38.3057 126.14 38.0644 126.524 37.6806C126.908 37.2965 127.14 36.7323 127.14 36.0159V25.8996C127.14 24.4634 127.892 23.2299 129.036 22.3691C130.178 21.5099 131.726 21.0065 133.387 21.0065C134.086 21.0065 134.543 20.8198 134.824 20.5527C135.103 20.288 135.263 19.8917 135.263 19.356C135.263 18.771 135.105 18.3517 134.814 18.0744C134.52 17.7938 134.02 17.5927 133.199 17.5927C131.122 17.5927 129.262 18.3434 127.791 19.5987L127.253 20.058L127.111 19.3651C126.996 18.8104 126.732 18.3734 126.36 18.074C125.988 17.7746 125.482 17.5927 124.85 17.5927Z" fill="#2B2C2F"/>
</g>
</g>
</g>
</svg>
